PathFileType	4	(X/Y/Z)	C:/Users/beibeiliu/ov580/test_trc/User1\sequence.13_training_dense_right.trc
DataRate	CameraRate	NumFrames	NumMarkers	Units	OrigDataRate	OrigDataStartFrame	OrigNumFrames
120	120	24	19	mm	120	119	316
Frame#	Time	ThumbCMC			ThumbMCP			ThumbIP			ThumbTip			IndexMCP			IndexPIP			IndexTip			MiddleMCP			MiddlePIP			MiddleTip			RingMCP			RingPIP			RingTip			PinkyMCP			PinkyPIP			PinkyTip			BackHand1			BackHand2			BackHand3	
		X0	Y0	Z0	X1	Y1	Z1	X2	Y2	Z2	X3	Y3	Z3	X4	Y4	Z4	X5	Y5	Z5	X6	Y6	Z6	X7	Y7	Z7	X8	Y8	Z8	X9	Y9	Z9	X10	Y10	Z10	X11	Y11	Z11	X12	Y12	Z12	X13	Y13	Z13	X14	Y14	Z14	X15	Y15	Z15	X16	Y16	Z16	X17	Y17	Z17	X18	Y18	Z18	
118	0.983333	159.77	22.6293	28.5665	134.016	40.6203	2.55997	120.503	50.942	-16.8453	100.873	51.3839	-38.0697	154.778	11.2759	-50.3989	127.419	30.0382	-59.9162	111.25	35.8486	-27.6659	153.787	-23.9454	-53.7051	150.556	-20.5329	-82.625	140.092	-18.8291	-113.154	137.479	-48.5088	-44.7492	137.559	-53.8101	-72.2678	138.273	-53.6251	-95.1295	110.782	-54.6279	-17.4573	101.721	-68.5114	-34.7631	105.01	-79.9619	-49.6116	144.681	-44.3116	11.8324	148.151	-45.668	44.4274	171.297	-21.2289	18.7945	
119	0.991667	162.345	20.1136	27.4644	140.443	42.4329	5.27464	127.457	50.9403	-15.3407	106.79	54.985	-33.8605	156.094	10.8652	-49.366	126.811	29.4636	-58.3227	111.844	36.0592	-28.5576	151.788	-25.4059	-57.7025	146.723	-20.6516	-84.8936	135.287	-17.8789	-110.749	135.559	-44.2719	-41.8577	132.244	-51.8929	-72.3398	130.192	-50.2335	-93.4533	105.699	-53.4785	-15.1289	97.9799	-63.3974	-35.1151	97.3213	-77.8111	-50.057	143.064	-42.3343	12.2957	150.466	-45.8259	41.1273	171.639	-20.2479	19.2566	
120	1	166.52	19.2653	29.3024	145.145	44.1435	4.87104	129.903	51.9491	-15.038	110.413	57.5447	-31.5662	153.33	10.9007	-52.7962	130.521	32.0556	-58.8589	112.671	37.8398	-30.6938	151.271	-23.0719	-58.0659	144.307	-21.0104	-82.4551	134.737	-14.8484	-112.125	132.264	-44.0209	-42.0945	129.033	-50.1934	-68.9117	123.927	-50.0753	-93.3637	102.844	-51.3531	-15.4909	94.983	-59.389	-30.4613	91.369	-75.1342	-49.5119	142.715	-42.7476	7.89603	151.086	-47.0275	44.644	172.419	-24.7083	19.1774	
121	1.00833	168.466	17.4971	29.5451	147.58	43.0022	13.1449	131.759	52.8787	-13.7852	112.355	60.2533	-28.6585	154.807	8.1044	-49.5974	132.179	34.6017	-57.3738	115.627	42.5369	-27.5182	146.352	-25.4627	-53.5779	143.389	-18.5956	-82.179	130.318	-11.1256	-113.923	128.145	-44.4395	-41.5989	124.306	-47.3376	-71.4041	122.415	-44.6197	-96.3989	100.353	-49.2238	-17.474	93.282	-55.5644	-31.9824	86.2373	-71.6342	-48.3436	140.794	-44.1979	9.14191	146.007	-49.0186	42.4472	168.047	-27.0604	18.5386	
122	1.01667	170.915	17.2198	29.973	149.956	44.4452	12.8666	134.316	53.368	-9.89618	114.571	57.6314	-27.6068	155.705	11.3078	-50.4037	132.629	35.3172	-56.6896	120.986	45.6391	-30.3842	147.42	-23.0664	-52.5093	140.054	-17.442	-80.9727	131.387	-7.33411	-111.827	127.216	-42.5671	-42.6515	124.456	-44.6896	-70.6355	117.908	-43.9187	-95.8699	100.578	-45.6619	-20.5094	91.6879	-51.6319	-30.9366	79.4317	-67.9391	-48.4396	138.894	-45.881	8.66068	145.418	-50.5753	45.8364	173.413	-26.1361	22.2978	
123	1.025	172.574	15.8201	33.7494	152.499	45.0581	11.6102	137.736	52.8787	-6.51168	116.294	64.8212	-25.3455	157.654	11.7611	-48.728	136.359	35.8544	-56.304	122.447	45.3574	-21.3026	146.094	-22.464	-53.6835	141.453	-14.1876	-82.9361	132.979	-4.72103	-109.722	128.388	-40.9293	-43.8312	125.062	-41.7415	-70.1701	117.107	-40.4478	-93.2208	98.9505	-45.295	-14.8178	85.2883	-51.6121	-32.1017	78.8304	-64.6503	-47.5744	137.588	-45.5052	10.7316	146.946	-51.0278	44.6287	171.665	-26.3675	22.4218	
124	1.03333	171.349	13.3835	32.9652	155.409	41.9902	15.6773	140.233	55.8626	-6.49266	119.656	61.7379	-23.036	158.005	15.1397	-48.6332	136.99	38.6163	-51.7825	127.047	46.8827	-19.934	149.901	-18.8322	-56.0563	141.939	-14.6492	-79.7175	132.171	-3.57755	-110.329	126.032	-39.2071	-41.824	123.036	-41.7522	-68.7165	118.769	-37.2064	-94.9587	95.4804	-43.4679	-17.3626	84.1823	-47.5715	-31.9781	78.3159	-57.7193	-48.8673	138.147	-41.627	9.76017	148.523	-48.3187	44.4915	172.734	-25.7639	21.7465	
125	1.04167	173.654	13.1659	35.2252	157.271	44.3481	15.0895	143.884	56.4085	-4.01654	123.619	65.0472	-23.9187	160.775	15.2326	-44.1555	141.075	41.1621	-50.0051	127.734	46.4645	-14.9444	147.718	-20.2696	-52.9928	146.533	-9.32449	-83.3738	133.012	0.291858	-111.457	129.297	-35.6832	-42.4653	121.902	-39.6144	-71.3251	118.94	-34.765	-92.4121	99.878	-37.6847	-16.8756	88.5439	-42.4429	-29.7649	78.6447	-52.9483	-47.8448	137.118	-44.8421	9.69161	144.559	-49.1334	42.9211	171.7	-26.0672	21.219	
126	1.05	172.85	13.2586	34.5803	158.606	42.7934	17.3386	147.269	58.4768	-4.62632	127.454	65.6368	-20.4494	162.904	18.14	-42.6108	137.517	42.5932	-46.39	124.324	44.4568	-14.2686	148.556	-19.0684	-55.5063	144.394	-9.65248	-82.4411	133.352	0.575188	-108.436	126.428	-37.2223	-43.395	123.519	-37.2613	-68.7122	115.392	-35.7064	-94.5478	97.9516	-37.7972	-15.9698	84.0298	-41.5851	-29.1504	77.5753	-51.3283	-49.2844	140.146	-42.0125	9.10131	143.593	-51.0013	43.3229	172.736	-27.8186	20.189	
127	1.05833	174.89	13.4729	34.4314	158.33	40.7439	14.7951	148.043	57.5875	-2.57116	128.747	66.6247	-21.9626	159.684	17.133	-44.2243	140.705	45.5899	-45.3607	126.993	47.0494	-11.7305	151.95	-17.1323	-53.8073	143.967	-9.11518	-83.4436	135.52	2.60568	-110.928	130.264	-34.4841	-42.8998	122.616	-37.9523	-72.5808	114.937	-34.9116	-93.476	95.5207	-39.4492	-19.807	83.5531	-41.006	-33.8286	75.2573	-52.0422	-49.6016	137.725	-41.9679	8.30227	146.515	-47.6809	45.6956	169.825	-27.5482	24.1119	
128	1.06667	177.787	15.1268	36.6727	161.002	41.7747	19.0604	148.864	57.1446	-3.54593	129.055	69.0493	-24.4428	163.538	19.0943	-43.9433	141.619	41.1191	-47.8494	127.803	45.8888	-15.4306	151.878	-17.6657	-51.344	148.437	-8.27759	-83.479	137.359	3.46086	-111.788	131.692	-34.9282	-45.0617	125.359	-37.041	-72.5339	118.125	-32.7011	-97.2561	95.9014	-38.68	-19.4852	88.5955	-40.2468	-32.7185	79.3392	-47.5684	-51.0676	138.291	-41.0959	7.02514	145.253	-51.2042	42.211	170.993	-27.4826	24.3596	
129	1.075	175.394	12.5701	33.5957	161.938	41.7316	15.0105	151.875	59.2193	-4.96381	132.054	69.8711	-22.997	162.319	17.3069	-47.0332	145.55	42.3822	-48.4213	131.029	45.5157	-15.6331	154.56	-18.6049	-56.1816	147.684	-11.2263	-84.2905	141.189	3.33165	-112.47	132.315	-35.2829	-43.3643	126.873	-38.2083	-68.5294	119.164	-34.9635	-97.2838	102.625	-36.4147	-19.3331	84.5794	-41.3744	-34.2705	75.5185	-50.6971	-51.0366	140.445	-41.4839	8.491	146.957	-48.2355	44.2734	174.054	-28.1933	22.4244	
130	1.08333	176.763	10.2338	35.217	164.271	42.8554	12.0786	152.275	54.9426	-9.82737	133.4	64.077	-26.2209	167.4	12.8846	-45.912	150.259	39.6306	-49.7988	133.122	41.7053	-17.8608	153.284	-23.0915	-57.2777	151.513	-13.0456	-85.6317	144.72	-2.64748	-110.444	133.339	-38.7128	-44.4872	131.319	-40.5997	-72.5864	126.68	-38.773	-99.076	103.975	-38.4915	-24.1325	90.9701	-42.9521	-33.8631	82.5655	-55.4782	-54.5664	143.822	-42.8306	7.62779	142.923	-51.3696	42.6974	172.586	-29.652	21.7761	
131	1.09167	177.697	7.9164	32.3912	166.35	38.1394	14.9393	156.565	54.0665	-12.1993	139.493	61.2032	-29.7262	176.148	8.79956	-43.6456	155.601	34.0689	-53.0507	142.789	41.0169	-20.2006	160.866	-27.8125	-51.7691	160.741	-19.1103	-86.2543	152.442	-10.4024	-114.232	139.318	-42.6182	-42.3509	140.349	-46.3531	-71.8809	135.785	-44.7698	-99.9111	108.44	-43.4879	-24.39	96.4033	-47.6689	-41.4695	90.3226	-60.1307	-56.4844	145.251	-44.5765	10.1423	146.208	-53.8354	38.937	174.675	-33.1339	20.8591	
132	1.1	181.038	9.66238	37.9556	169.745	37.37	13.4838	162.03	50.2899	-15.2483	144.106	53.5608	-33.6592	177.862	1.0111	-44.1728	159.171	26.9091	-53.9891	147.336	37.6688	-18.162	171.813	-31.8076	-50.1093	170.789	-26.7671	-84.2364	165.759	-18.5764	-110.313	146.719	-47.069	-43.1417	150.05	-51.3534	-68.6579	150.501	-49.7865	-97.7689	114.316	-46.3585	-23.222	105.036	-52.5306	-45.4055	101.463	-61.9309	-62.4718	146.373	-50.1759	10.9793	143.527	-54.8283	44.1028	177.964	-35.5401	28.2052	
133	1.10833	182.515	9.12876	38.3414	170.497	32.3388	7.71059	163.99	42.9712	-14.6279	148.802	48.6168	-37.21	187.686	0.782989	-44.2	167.774	24.9445	-53.6556	148.363	30.2148	-21.6056	175.167	-38.4244	-50.7355	182.448	-32.472	-76.6975	178.408	-27.6645	-108.86	151.833	-52.086	-40.3753	155.481	-58.7196	-67.2241	156.531	-59.9771	-93.2601	117.371	-52.0485	-26.3661	110.217	-59.0572	-45.8467	112.393	-67.1873	-62.3654	148.904	-49.6019	10.8087	149.994	-53.6564	42.2133	180.167	-34.4422	28.6301	
134	1.11667	180.242	5.44866	37.9288	171.301	30.3174	10.0063	169.232	44.7242	-19.0621	153.714	45.8059	-43.59	191.505	-6.12366	-43.1709	176.171	20.4079	-56.2982	154.484	29.137	-25.1691	186.15	-41.1861	-46.713	190.807	-39.1416	-76.6811	190.2	-33.8367	-110.86	162.04	-55.4886	-38.6817	166.73	-62.5584	-63.7744	173.363	-64.5362	-93.7878	126.889	-54.4205	-24.8297	122.202	-62.3944	-47.9796	122.826	-74.7697	-63.504	154.325	-52.243	14.954	148.257	-53.3059	47.9386	179.07	-38.1913	32.3508	
135	1.125	181.987	7.5041	35.7912	173.583	32.9066	7.52161	170.832	42.357	-21.6343	156.853	40.8437	-44.9134	198.666	-6.91551	-39.3738	177.707	13.4601	-58.0288	155.649	23.7535	-31.0486	190.531	-45.4804	-46.4251	198.267	-43.8238	-73.5954	200.919	-39.8821	-102.129	168.691	-60.0485	-39.2976	176.109	-67.8447	-64.6311	179.038	-70.7833	-86.9574	132.186	-58.0887	-26.5712	127.493	-69.7864	-46.8299	130.001	-83.5558	-61.7843	155.592	-53.2717	11.6372	150.952	-55.1023	48.5868	181.758	-35.9963	29.8574	
136	1.13333	179.759	9.90449	38.2582	170.622	28.5334	5.38528	167.959	36.9465	-21.312	157.727	37.8867	-46.7757	199.543	-12.3287	-38.7432	185.916	12.7991	-58.7118	158.769	22.5703	-32.1809	195.201	-46.3136	-42.3543	206.089	-44.2566	-66.8921	208.629	-43.195	-98.3011	170.905	-62.3863	-33.7491	181.21	-70.2743	-58.578	189.533	-75.5327	-84.5502	138.384	-62.5238	-25.3061	134.475	-73.3446	-44.9893	141.206	-87.5778	-61.1461	159.257	-55.3897	13.631	148.433	-54.7694	48.9852	183.493	-36.6524	32.9712	
137	1.14167	177.386	13.0354	38.3501	167.903	30.3364	3.87481	167.338	39.0884	-24.4542	154.679	36.9173	-45.8673	203.634	-8.76731	-39.0913	188.042	11.7052	-57.6634	161.687	25.5735	-38.5658	200.417	-44.7194	-38.1825	214.911	-43.2129	-67.3045	218.761	-41.2408	-94.6921	179.123	-63.3532	-32.6219	192.963	-70.0401	-57.3845	201.259	-73.0584	-81.7412	144.663	-65.1132	-26.7969	143.368	-75.6526	-41.7306	145.481	-92.7728	-58.422	159.358	-56.7604	17.3904	156.15	-53.2081	50.0801	186.354	-31.4107	35.4967	
138	1.15	173.458	15.4419	37.99	161.986	32.2082	4.78153	160.097	38.7936	-24.5714	150.038	38.7133	-50.8638	203.987	-7.19028	-36.7274	187.803	13.44	-58.0278	159.596	24.1754	-42.7591	205.791	-41.7265	-35.246	218.184	-39.3568	-64.1864	221.178	-41.0199	-89.7358	182.58	-59.0731	-27.039	197.578	-69.4543	-53.3703	209.284	-69.1036	-76.4999	150.149	-66.407	-23.6215	151.705	-76.7775	-39.2537	157.946	-94.4212	-53.6867	166.426	-53.8199	18.5915	155.275	-54.4145	50.7447	183.387	-28.4376	40.2953	
139	1.15833	166.113	14.5843	38.9871	154.727	27.6993	2.97466	151.563	36.3755	-25.1577	143.509	33.276	-47.5502	204.751	0.301973	-33.2383	185.724	15.8223	-56.9346	158.269	25.7211	-45.9428	208.632	-35.3777	-31.0298	221.187	-33.7794	-60.506	226.359	-34.7072	-87.3046	188.651	-53.4898	-24.0815	203.115	-62.724	-47.4684	215.456	-64.5768	-74.9793	153.736	-68.0315	-21.3919	158.936	-75.6153	-34.6259	169.252	-93.0932	-49.7457	168.665	-50.4713	20.7054	157.943	-52.5986	54.0178	183.214	-25.9314	41.8476	
140	1.16667	161.348	15.9718	37.4003	145.492	31.6766	4.05088	141.479	33.9904	-22.0478	136.382	30.8827	-48.8682	200.254	4.34376	-29.3627	178.549	15.0015	-56.8018	150.137	27.0323	-45.433	207.876	-28.3414	-26.6798	223.177	-24.7243	-56.3567	229.887	-27.4222	-84.2076	192.381	-53.9473	-23.2784	210.272	-54.8962	-45.4416	220.489	-58.6551	-72.6247	158.898	-65.1118	-16.1647	166.262	-74.144	-31.6959	181.98	-90.5776	-48.7401	166.135	-51.1898	23.9632	159.307	-50.3461	53.2133	183.624	-18.5584	43.4831	
141	1.175	151.925	20.7925	40.3707	137.064	26.3673	1.84163	133.666	33.0047	-25.5684	126.942	26.2479	-48.1767	194.833	12.713	-32.2682	173.867	15.8236	-56.6395	141.65	20.9074	-46.3244	206.293	-23.3026	-27.0649	221.325	-14.4792	-53.5869	229.514	-15.1786	-81.1977	197.504	-43.2265	-22.6487	213.555	-48.5194	-46.0792	223.868	-46.496	-66.128	163.521	-66.2713	-14.5266	174.541	-74.6508	-33.5923	187.314	-85.9104	-45.355	173.385	-44.6532	24.1362	161.361	-50.9477	57.2672	179.984	-17.9162	43.3672	
